<svg id="Layer_1" data-name="Layer 1" xmlns="http://www.w3.org/2000/svg" viewBox="0 0 235.33 93.6"><defs><style>.cls-1{fill:#e0dbb3;}.cls-2{font-size:19.95px;stroke:#538243;stroke-miterlimit:10;stroke-width:2px;font-family:Catarina handwritten;letter-spacing:1px;}.cls-2,.cls-3{fill:#538243;}</style></defs><title>gfh_buttons</title><path class="cls-1" d="M39.35,61.56c0.75-1.28,0-2.34,0-3.44,0-.21-0.09-0.42-0.08-0.63A95,95,0,0,0,38.71,48c-0.1-1.7-.09-3.4-0.15-5.09,0-1.08-.12-2.16-0.16-3.23-0.06-1.54-.06-3.09-0.18-4.63s-0.37-3.13-.53-4.7c-0.08-.82-0.08-1.65-0.13-2.47-0.12-2-.23-4-0.4-6-0.11-1.36-.34-2.71-0.46-4.07-0.19-2.12-.38-4.24-0.48-6.36C36.1,9,36.07,6.56,36,4.14c0-.39,0-0.78.07-1.26,1.45,0.1,2.83.17,4.2,0.29a62.51,62.51,0,0,0,6.59.62A18.88,18.88,0,0,1,49,4.2c1.38,0.14,2.77.21,4.15,0.29,1.75,0.1,3.5.2,5.26,0.25s3.52,0,5.27.07c0.71,0,1.42.15,2.12,0.2,1.23,0.1,2.47.21,3.7,0.25s2.55,0,3.83,0a70.32,70.32,0,0,1,8.23.19c0.74,0.08,1.5,0,2.25,0,2.94,0.06,5.87.17,8.81,0.21s6-.12,9,0.06c4.06,0.24,8.11.11,12.17,0.22,2.14,0.06,4.29,0,6.41.2,3,0.31,5.93.27,8.89,0.41,2.59,0.12,5.18,0,7.78,0l10.16,0c2.21,0,4.42,0,6.62,0,2.92,0,5.84.11,8.76,0.16,2.25,0,4.5,0,6.74.09s4.28,0.17,6.42.24c2.63,0.09,5.26.15,7.89,0.24,2.44,0.09,4.87.2,7.3,0.31l7.77,0.38L200.18,8a12.63,12.63,0,0,0,1.44.05c1.08-.07,1.27,0,1.31,1.07a28.14,28.14,0,0,1,0,2.82c-0.13,2-.35,4.08-0.37,6.13,0,3.22-.24,6.43-0.26,9.65s0.09,6.29.13,9.44c0,2.06,0,4.12.08,6.18s0.27,4.32.33,6.49c0,1.58-.08,3.16-0.07,4.74s0.11,3,.14,4.44c0,0.79,0,1.59,0,2.38a2.38,2.38,0,0,1-.14.63c-0.16.51-.34,1-0.57,1.68a8.74,8.74,0,0,1-1.16.14c-1.31,0-2.62,0-3.92,0-1.12,0-2.24-.15-3.36-0.22l-0.78,0a13.07,13.07,0,0,1-1.89,0,21.16,21.16,0,0,0-3.9-.14c-1.13,0-2.26-.08-3.38-0.09-2.11,0-4.22-.12-6.32,0-2.68.15-5.37,0-8.05,0.32-2.08.23-4.19,0.28-6.29,0.34-0.89,0-1.78-.17-2.68-0.2a2.68,2.68,0,0,0-1.87.59c-1.16,1-1.35,1.67-.54,2.91a6.71,6.71,0,0,1,1,3.49c0.1,2.57.15,5.14,0.26,7.7,0.06,1.55.23,3.1,0.29,4.66s0,2.87,0,4.43a5,5,0,0,1-.74-0.37c-1.07-.78-2.14-1.57-3.2-2.36-0.57-.43-1.06-0.94-1.69-1.34-2.41-1.52-4.74-3.17-7.06-4.81-1.78-1.26-3.52-2.58-5.28-3.87a27,27,0,0,1-3.1-2.31c-1.16-1.15-2.59-1.95-3.79-3s-2.52-2-3.78-3.07a6.86,6.86,0,0,1-1.14-1,5,5,0,0,0-4.46-1.74c-1.57.07-3.12,0.39-4.69,0.52s-3.07.2-4.61,0.21-3.06-.1-4.59-0.16c-3-.12-6-0.24-9-0.34-1.5-.05-3-0.06-4.51-0.1-2.56-.07-5.11-0.12-7.67-0.24-1.27-.06-2.54-0.26-3.81-0.36-0.75-.06-1.5,0-2.25-0.05-2-.1-4-0.26-6-0.33s-4-.06-6-0.13c-2.63-.1-5.25-0.28-7.87-0.38-1.92-.07-3.84-0.05-5.76-0.05-2.26,0-4.52,0-6.78,0-3,0-6-.1-9-0.22C41.78,61.95,40.67,61.73,39.35,61.56Z"/><polygon class="cls-1" points="204.33 62.13 35.7 62.13 32.33 1.47 204.33 4.13 204.33 62.13"/><text class="cls-2" transform="translate(55.09 36.63)">OUR STORY</text><path class="cls-3" d="M32.74,0.39C34.82,0.5,37.2-.4,39.27-0.17s4-.19,6.06,0,5.16-.5,7.36-0.34,4.81,0.43,7,.56S63.77-.19,66-0.06c4.49,0.26,9-.29,13.54-0.11C81.75-.08,83.73-0.3,86-0.3s4.62,0.11,6.93.15c4.38,0.08,8.74,0,13.11.18s8.82,0.13,13.22.3,9.06,0.56,13.59.51,8.93,0,13.4,0,9-.12,13.52-0.08,9.13,0.33,13.7.44,9.09,0.23,13.64.4l6.72,0.27c2.29,0.1,4.6.34,6.89,0.32,1.83,0,3.56-.71,5,0.58a2.83,2.83,0,0,1,1.36,1.85,23.28,23.28,0,0,1-.1,3c-0.15,4.15-.49,8.29-0.64,12.43s-0.07,8.25,0,12.38,0.26,8.44.34,12.65c0,2.09-.1,4.18-0.05,6.27s0.57,4.18.34,6.23a8.44,8.44,0,0,0,.12,2.91,5,5,0,0,1,.45,2.47,3.63,3.63,0,0,1-1.28,1.75,7.88,7.88,0,0,1-2.38,1.56,9.13,9.13,0,0,1-2.87,0L197.28,66c-2.22-.14-4.43-0.28-6.65-0.44-4.49-.32-8.91-0.2-13.4-0.12-2.24,0-4.51-.2-6.75,0s-4.3.26-6.42,0.5a3.12,3.12,0,0,0-1.1.17,4.88,4.88,0,0,0,0,1.56c0,1.09,0,2.18.09,3.28,0.11,2.11.25,4.23,0.37,6.34s0.25,4.25.35,6.38c0,0.94,0,1.88.06,2.82s0.3,1.89.42,2.84a2.78,2.78,0,0,1-2.54,2.93,4.91,4.91,0,0,1-4.37-1.53,14.79,14.79,0,0,0-1.82-1.85c-0.69-.51-1.41-0.9-2.08-1.44-1.64-1.31-3.4-2.49-5.16-3.64-0.8-.52-1.6-1-2.36-1.59a21.62,21.62,0,0,0-2.54-1.85,49.62,49.62,0,0,1-4.65-3.26c-3.42-2.38-6.62-5-9.89-7.53-0.75-.59-1.55-1.13-2.25-1.78a5.89,5.89,0,0,0-2.09-1.57,5.19,5.19,0,0,0-2.63.16,19.88,19.88,0,0,1-3.59.19c-4.38-.09-8.77-0.17-13.15-0.38-8.8-.42-17.58-0.84-26.4-1.21-9.09-.38-18.18-0.67-27.28-0.66-2.23,0-4.46.16-6.68,0s-4.39-.37-6.55-0.68c-1.7-.24-4.25-0.44-5.39-1.82s-0.48-2.69-.26-4.11a21.18,21.18,0,0,0,0-4.5c-0.11-2.07-.16-4.15-0.22-6.23-0.13-4.27-.24-8.55-0.53-12.82s-0.73-8.41-1.12-12.61c-0.09-.94.09-1.87-0.06-2.81A25.18,25.18,0,0,1,30.12,16c-0.1-2.16-.3-4.31-0.38-6.47s-0.1-4.15-.09-6.23S28.89,0.17,32.74.39Zm5.32,58.72c8.57,1.05,17.22.35,25.83,0.7,4.36,0.17,8.72.31,13.08,0.47,2.24,0.08,4.48.32,6.72,0.35s4.26,0.35,6.4.43c4.32,0.16,8.64.19,13,.35s8.65,0.52,13,.41c2.1-.06,4.16-0.28,6.25-0.53,1.68-.21,3.55-0.39,5.06.49a12.48,12.48,0,0,1,1.74,1.58c0.76,0.65,1.58,1.24,2.38,1.85,1.53,1.18,3,2.4,4.56,3.57,0.85,0.65,1.59,1.41,2.47,2s1.84,1.25,2.75,1.9c1.94,1.41,3.88,2.8,5.85,4.16s4,2.53,5.87,3.88,3.36,2.86,5.36,3.81c0-4.58-.32-9.13-0.46-13.7-0.07-2.16,0-4.21-1.12-6.16a1.81,1.81,0,0,1-.21-2.09,3.08,3.08,0,0,1,2.34-1.34c1.11-.06,2.23.21,3.34,0.19s2.47-.06,3.71-0.14c2.45-.14,4.87-0.37,7.34-0.41,4.92-.07,9.83-0.14,14.76,0,2.22,0.06,4.46.25,6.69,0.39,1.2,0.08,2.41.1,3.62,0.1,0.53,0,1.06,0,1.59,0a2.42,2.42,0,0,0,.76-0.09,0.71,0.71,0,0,0,.46-0.64c0.72-2.08.53-4.17,0.45-6.33s0.07-4.43,0-6.65-0.29-4.71-.35-7.06,0-4.75-.09-7.12c-0.1-4.71-.06-9.4.09-14.11,0.08-2.35.12-4.69,0.31-7,0.09-1.11.18-2.21,0.16-3.32,0-.51.2-1.79-0.34-2.17s-1.75-.1-2.26-0.13l-3.7-.2L188,6.16c-9.94-.44-19.87-0.65-29.82-0.85-4.91-.1-9.81-0.09-14.72-0.1s-10,.14-14.94,0c-4.81-.15-9.62-0.56-14.43-0.6s-9.81-.1-14.71-0.28-9.92,0-14.87-.17C79.68,4,74.89,3.9,70.08,4c-2.36,0-33.82.94-36.16,0.78-0.45,7.58,1.77,12.05,2.24,19.6,0.12,1.88.17,3.77,0.41,5.64s0.42,3.7.47,5.56c0.11,3.87.16,7.77,0.48,11.63,0.18,2.18.44,4.36,0.47,6.55a15.61,15.61,0,0,0,.14,2.75,3.44,3.44,0,0,1-.07,2.62C39.38,59.27,38.81,57.86,38.06,59.11Z"/></svg>