<svg id="Layer_1" data-name="Layer 1" xmlns="http://www.w3.org/2000/svg" viewBox="0 0 235.33 93.5"><defs><style>.cls-1{fill:#7e324a;}.cls-2{fill:#e0dbb3;}.cls-3{font-size:19.95px;stroke-width:2px;font-family:Catarina handwritten;letter-spacing:1px;}.cls-3,.cls-4{fill:#538243;stroke:#538243;stroke-miterlimit:10;}.cls-4{stroke-width:0.75px;}</style></defs><title>gfh_buttons</title><path class="cls-1" d="M39.45,26c1.26-.74,2.08-2.29,3.17-3.27a9.76,9.76,0,0,1,3.84-2.24c3-.84,6.49-0.11,6.86,3.44,0.39,3.78-.88,7.51-1.67,11.15A39.85,39.85,0,0,1,50,39.73a45.13,45.13,0,0,1-2.33,4.94,23.31,23.31,0,0,0-1,2.34c-0.31.85-.42,1.73-0.68,2.58-0.43,1.45-1.87,1.63-3,.92a12.3,12.3,0,0,1-3.53-3.17A10.58,10.58,0,0,0,38,45.61c-0.6-.55-1.26-1-1.81-1.61C35,42.7,34,41.36,32.69,40.13a10.16,10.16,0,0,0-1.83-1.51A9.91,9.91,0,0,1,29,37.42a18.53,18.53,0,0,1-1.5-1.85,23.85,23.85,0,0,0-1.87-1.94,15,15,0,0,1-2.84-3.89c-2.05-3.88,2.94-6.22,6.05-6.59A11.66,11.66,0,0,1,32,23c1,0.15,2,.38,3,0.6C36.65,24,37.9,25.31,39.45,26,40.09,25.64,37.77,25.25,39.45,26Zm-2.83,4.38c-0.42.09-.93,0.64-0.37,0.9a3.25,3.25,0,0,1,.29-0.77A2.37,2.37,0,0,1,37,30.26a4.82,4.82,0,0,0,.56-0.9,1.1,1.1,0,0,0-.93,1C36.17,30.5,36.6,29.87,36.63,30.39Zm0.17,6.28A3.61,3.61,0,0,0,35.73,38a0.31,0.31,0,0,0,.29.3c0.37,0.09.37-.28,0.49-0.58a6.68,6.68,0,0,1,1-1.62,3.11,3.11,0,0,0,.64-1.62L36.8,36.67C36.46,37.05,37.25,35.93,36.8,36.67Zm10.65-9.45c-0.45-.24-0.74.43-1,0.79s-0.57.72-.84,1.09c-0.62.83-1.21,1.67-1.78,2.53-1.12,1.68-2.17,3.4-3.24,5.11L41.28,37c-0.15.26-.92,1.44-0.24,1.06a5.44,5.44,0,0,0,1-1.58c0.64-1,1.23-2.08,1.85-3.12s1.33-2,2-3,1-2.08,1.55-3.12C47.36,27.18,46.83,28.44,47.45,27.23Zm-8.12,7.59c0.52,0.36,1.78-1.82,2.09-2.27,0.72-1.06,1.56-2,2.35-3s1.41-1.94,2.19-2.85a10.19,10.19,0,0,0,1.93-2.77,2.69,2.69,0,0,0-1.88,1c-0.26.39-.4,0.84-0.68,1.23s-0.85,1-1.23,1.5c-0.85,1.2-1.66,2.43-2.49,3.65a31.9,31.9,0,0,0-2.29,3.55C39.39,34.86,39.44,34.6,39.33,34.81Zm3.6,1.91c0.57,0.51,1.46-1.32,1.75-1.78,0.61-1,1.23-1.9,1.87-2.84s1.24-1.82,1.86-2.73,1.38-1.61,1-2.62c-2.38,3.18-4.41,6.59-6.48,10C43,36.79,45,33.37,42.93,36.72Zm-6.38-8.55c-1-.66-1.22-0.27-1.87.65a14.88,14.88,0,0,0-2,3.29,32.29,32.29,0,0,0,3.91-3.94C35.69,27.61,35.2,29.52,36.55,28.17ZM31.4,30.4c0.68,1.06,2.92-3,3.17-3.56-1.57.67-2.26,2.23-3.17,3.56C31.46,30.49,32.31,29.09,31.4,30.4ZM43.23,43.08a8.92,8.92,0,0,0,3.09-4.95A42,42,0,0,0,43.23,43.08ZM33.18,33.32c-0.31.43-1.08,0.79-1.16,1.35s1,1.31,1.46,1.71l0.47-.77-1.17-.22,0.41-2.07C32.69,34,33,34.13,33.18,33.32Zm7-2.24c-0.72-.6-1.37,1.19-1.51,1.74l1.51-1.74C40.05,31,39.63,31.65,40.14,31.07ZM29.69,26.58c-1.13,0-1.24.75-1.58,1.26A3.73,3.73,0,0,0,29.69,26.58Zm18.87-2.79,0.95,0.35C49.38,23.37,49,23.46,48.56,23.79ZM30.8,32.93l-0.22-.17c-0.37.55-.25,0.65,0.22,0.17C30.73,32.88,30.68,33.06,30.8,32.93Z"/><path class="cls-2" d="M227.21,63.75c-0.36,0-.74.06-1.11,0.06-2.12,0-4.24-.12-6.36-0.15-0.73,0-1.46,0-2.18.09-0.29,0-.58.11-0.86,0.09-5.17-.2-10.35.07-15.52,0-3.68,0-7.36.09-11,.11-1.16,0-2.32-.1-3.49-0.11q-4.79-.05-9.59-0.06c-1.64,0-3.28.05-4.92,0.05-1.15,0-2.31,0-3.46-.06-1.63,0-3.27-.09-4.9-0.12-2.27,0-4.55-.06-6.82,0s-4.56.08-6.83,0.09c-1.74,0-3.47-.07-5.21-0.08-2.47,0-4.94,0-7.42,0s-4.83,0-7.25,0c-2,0-4,.11-5.93.12-1.06,0-2.13-.17-3.19-0.15-4.21,0-8.42.16-12.62,0.19-4.51,0-9,0-13.54,0s-8.92,0-13.38,0c-1.55,0-3.1-.12-4.65-0.14s-3.17,0-4.86,0c-0.23-1.23-.41-2.33-0.64-3.43-0.28-1.35-.62-2.7-0.89-4.06-0.13-.64-0.14-1.3-0.22-1.94-0.47-3.72-.91-7.45-1.43-11.17C68.6,41,68.16,39,67.82,37c-0.18-1.1-.31-2.21-0.43-3.32-0.31-2.86-.56-5.73-0.93-8.59-0.31-2.4-.19-4.81-0.42-7.2a46.29,46.29,0,0,0-.8-6.92c-0.39-1.57-.45-3.19-0.68-4.78-0.07-.48-0.23-0.95-0.38-1.51,0.48-.06.85-0.13,1.22-0.15Q69.82,4.23,74.24,4c1.43-.08,2.86-0.12,4.29-0.18,3-.11,6-0.24,9-0.32,3.19-.09,6.39-0.14,9.58-0.2,4.12-.07,8.25-0.17,12.37-0.18,3.69,0,7.37.08,11.06,0.13,4.85,0.06,9.7.09,14.55,0.19,3.88,0.09,7.75.26,11.62,0.41,4.21,0.16,8.42.35,12.63,0.51,2.42,0.09,4.85.11,7.27,0.21,1.21,0,2.41.2,3.62,0.26q5.44,0.27,10.88.5c5,0.21,10.08.43,15.12,0.61q5,0.18,10,.28c4,0.08,8.06.11,12.08,0.19,1.55,0,3.11.11,4.66,0.21,0.66,0,1.32.19,2.12,0.31,0.12,1.54.29,3,.34,4.51,0.12,3.53.23,7.06,0.27,10.59s0,7.12,0,10.68c0,2.19-.1,4.38.06,6.56,0.21,2.78.66,5.55,1,8.33,0.15,1.3.21,2.6,0.32,3.9,0.17,1.95.41,3.89,0.5,5.84,0.06,1.41-.05,2.82-0.12,4.23C227.38,62.26,227.28,63,227.21,63.75Z"/><path class="cls-2" d="M63,5.47c0.25,1.94-1,4.45-.75,6.25,0.14,1.21.27,2.43,0.33,3.65,0.08,1.6.07,3.19,0.13,4.79,0.15,4.06.31,8.11,0.76,12.15,0.27,2.4.58,4.8,0.84,7.2,0.33,3.15.66,6.3,0.94,9.45,0.31,3.48.58,7,.85,10.44,0.08,1,.17,2.08.21,3.12,0,0.74-.09.88-0.82,0.87-0.9,0-1.79-.13-2.69-0.15-1.19,0-2.39,0-3.58,0s-2.68,0-4,0c-1.68,0-3.36.06-5,.08-2.18,0-4.36,0-6.53.05-2.77.06-5.55,0.2-8.32,0.27q-5.41.13-10.82,0.21c-1.94,0-3.89,0-5.83,0-1,0-1.93.21-2.9,0.29A9.41,9.41,0,0,1,14.49,64c-0.07-1-.18-1.94-0.2-2.87,0-2,.09-4-0.08-6-0.28-3.32,0-6.63-.11-9.94-0.08-3-.19-6-0.2-9,0-3.24.08-6.49,0.14-9.73,0.07-3.84.17-7.67,0.24-11.51,0-1.78.05-3.56,0-5.34a8.26,8.26,0,0,1-.05-2.65l0.15-.5C30.15,6.76,47.27,6.48,63,5.47ZM39.46,26.41c-1.68-.76-2.9-2.17-4.78-2.45-1.47-.22-2.88-0.81-4.4-0.6a20.22,20.22,0,0,0-3.1.46,11.48,11.48,0,0,0-3.49,1.77,3.24,3.24,0,0,0-1.15,3.87,22.21,22.21,0,0,0,1.18,2.12,8.73,8.73,0,0,0,1.89,2.29,17.85,17.85,0,0,1,2.46,2.73,5.76,5.76,0,0,0,2.22,2,6.32,6.32,0,0,1,1.23.77c0.59,0.5,1.15,1,1.7,1.6a21.11,21.11,0,0,1,2.05,2.2,10.61,10.61,0,0,0,1.88,2,6.7,6.7,0,0,1,1.64,1.62,12.3,12.3,0,0,0,4,3.93c1.38,0.91,2.85.38,3.11-1.16a17.22,17.22,0,0,1,1.91-5.05,27.46,27.46,0,0,0,2.49-5.58,6,6,0,0,1,.31-0.72,16.14,16.14,0,0,0,.82-2.06c0.4-1.57.61-3.2,1.09-4.74a18.81,18.81,0,0,0,.83-6.7,4.06,4.06,0,0,0-1.44-3.14,5.21,5.21,0,0,0-4-.86c-2.93.28-5.06,2-6.9,4.1A6.83,6.83,0,0,1,39.46,26.41Z"/><polygon class="cls-2" points="67.5 64.17 58.67 64.17 58.67 4.17 63.17 4.5 67.5 64.17"/><text class="cls-3" transform="translate(77.6 39.06)">SUPPORT US</text><path class="cls-4" d="M228.53,65.12a13.25,13.25,0,0,1-.06-2.56c0-.89-0.14-1.78-0.17-2.67-0.06-2-.16-4.08-0.24-6.13a41.76,41.76,0,0,0-.63-6.11A45.4,45.4,0,0,1,227,41.6c-0.41-8-.33-16-0.45-24a11.42,11.42,0,0,0,0-1.54,12.76,12.76,0,0,1-.08-2.75,18.93,18.93,0,0,0-.13-2.79,18.39,18.39,0,0,1,0-2.8,3.67,3.67,0,0,0-.13-2.32c-1-1.54-2.88-1.92-4.57-2-2.12-.09-4.24-0.18-6.36-0.23-3.1-.08-6.2-0.1-9.3-0.15v0c-45-.26-52.56-0.95-59.78-1.47-2-.15-4.07-0.26-6.12-0.29s-4-.25-6-0.41c-4.15-.33-8.35-0.48-12.51-0.55S113.16,0.27,109,.09s-8.4,0-12.62,0C88,0.15,79.74.2,71.45,1s-16.69.78-25,1c-4.17.13-8.35,0.25-12.52,0.07s-8.37,0-12.54,0a49.51,49.51,0,0,1-5.87.2c-1.59-.16-3.19-1.46-4.8-0.7s-1,3.28-1,4.63c0,2.14,0,4.28,0,6.42,0,8.35-.31,16.69-0.21,25,0,4.18.06,8.35,0.1,12.53,0,2.08,0,4.15,0,6.23s0.21,4.15.16,6.23c0,1.65-.66,4,0.31,5.43s2.6,0.83,4,.53c4-.82,7.9-0.58,11.9-0.59,2,0,4-.23,6.06-0.36s4.06-.14,6.09-0.2c4.11-.13,8.23-0.06,12.33-0.24,8.5-.36,17,0.15,25.51.18,4.2,0,8.42.21,12.61,0.06s8.34-.08,12.51-0.12,8.52-.21,12.78-0.14,8.26,0.17,12.39.18,8.33,0,12.5-.1,8.28,0.16,12.42.08c2.11,0,4.21-.13,6.32-0.09s4.18,0.21,6.28.22c1.39,0,3.46-.05,42.19-0.06h2c4.16,0,8.3.08,12.45,0.12,1,0,2-.08,3,0s1.68,0.43,2.54.56A2.42,2.42,0,0,0,228.53,65.12ZM67,63c-0.31,0-1.37.17-1.81,0.15-0.79,0-1.58-.11-2.37-0.13-1.68,0-3.37,0-5.05,0-7-.06-14.1.23-21.14,0.48-3.61.13-7.22,0.21-10.83,0.29-1.71,0-3.42,0-5.13,0-0.91,0-1.82,0-2.73.1a17.85,17.85,0,0,1-2.45.24c-0.63,0-.78,0-0.83-0.56,0-.38-0.07-0.76-0.1-1.13-0.06-.77-0.08-1.55-0.09-2.32,0-1.73,0-3.46-.12-5.18-0.28-3.52-.06-7-0.17-10.57C14,37.23,14,30.12,14.08,23c0.06-3.53.14-7.05,0.14-10.58C14.23,10.71,14,9,14,7.33a2.48,2.48,0,0,1,.22-1.24A2.24,2.24,0,0,1,15.39,6l2.65,0C32.5,6.3,47,6.5,61.43,5.48c1.65-.42,1.2,3.66,1.41,5.35,0.88,7.06.52,13.93,1.33,21s1.56,13.68,2.17,20.67c0.16,1.82.18,4,.33,5.83,0.08,0.9.27,1.6,0.33,2.5C67,61.3,67.51,63,67,63Zm156.63,0.29c-1.67.11-3.36,0-5-.08s-3.07.14-4.62,0.1c-2.54-.06-5.08,0-7.63.07-39.93.05-42.19,0.2-44.06,0.11-3.26-.16-6.55-0.17-9.81-0.14-5.72.06-11.44-.26-17.16-0.14s-11.54,0-17.31,0c-11.83,0-23.67.2-35.51,0.19-2.88,0-5.75-.17-8.62-0.16H71.79l-0.05-.36A7.61,7.61,0,0,1,71.47,61c-0.2-1.35-.45-2.68-0.68-4-0.48-2.78-.61-5.65-0.89-8.46s-0.58-5.78-1-8.66-0.71-5.75-.94-8.64-0.6-5.88-.68-8.83-0.17-5.83-.47-8.73c-0.15-1.44-.46-2.85-0.6-4.29a38.53,38.53,0,0,0-.53-4,86.62,86.62,0,0,1,9.65-.75c3.31-.16,6.63-0.33,9.94-0.43,6.66-.2,13.34-0.4,20-0.27,6,0.11,12,.11,18,0.36s11.78,0.67,17.67.87,11.76,0.7,17.64,1c3.06,0.16,8.13.55,47.34,0.7h0l2.2,0.07c3,0.07,6,.08,9,0.17a25.91,25.91,0,0,1,4.16.34,2.42,2.42,0,0,1,.72.15,4.06,4.06,0,0,1,.07,1.12c0.05,0.73.1,1.47,0.14,2.2,0.31,5.93.28,11.89,0.25,17.82,0,2.92-.09,5.84,0,8.76s0.43,5.9.71,8.83A98.42,98.42,0,0,1,223.63,63.29Z"/></svg>